<mxfile host="app.diagrams.net" modified="2022-05-29T14:53:41.761Z" agent="5.0 (Windows NT 10.0; Win64; x64) AppleWebKit/537.36 (KHTML, like Gecko) Chrome/101.0.4951.67 Safari/537.36" etag="JKLycftygfDj_jBYtBHL" version="18.1.3" type="github">
  <diagram id="uepFhEMQ-08rlqQsJ97F" name="Page-1">
    <mxGraphModel dx="1038" dy="547" grid="1" gridSize="10" guides="1" tooltips="1" connect="1" arrows="1" fold="1" page="1" pageScale="1" pageWidth="827" pageHeight="583" math="0" shadow="0">
      <root>
        <mxCell id="0" />
        <mxCell id="1" parent="0" />
        <mxCell id="Om3zJiVZsqNHLf6eznNR-51" style="edgeStyle=orthogonalEdgeStyle;rounded=0;orthogonalLoop=1;jettySize=auto;html=1;entryX=0.5;entryY=0;entryDx=0;entryDy=0;" edge="1" parent="1" source="Om3zJiVZsqNHLf6eznNR-1" target="Om3zJiVZsqNHLf6eznNR-2">
          <mxGeometry relative="1" as="geometry" />
        </mxCell>
        <mxCell id="Om3zJiVZsqNHLf6eznNR-52" style="edgeStyle=orthogonalEdgeStyle;rounded=0;orthogonalLoop=1;jettySize=auto;html=1;entryX=0.5;entryY=0;entryDx=0;entryDy=0;" edge="1" parent="1" source="Om3zJiVZsqNHLf6eznNR-1" target="Om3zJiVZsqNHLf6eznNR-27">
          <mxGeometry relative="1" as="geometry" />
        </mxCell>
        <mxCell id="Om3zJiVZsqNHLf6eznNR-53" style="edgeStyle=orthogonalEdgeStyle;rounded=0;orthogonalLoop=1;jettySize=auto;html=1;entryX=0.5;entryY=0;entryDx=0;entryDy=0;" edge="1" parent="1" source="Om3zJiVZsqNHLf6eznNR-1" target="Om3zJiVZsqNHLf6eznNR-28">
          <mxGeometry relative="1" as="geometry" />
        </mxCell>
        <mxCell id="Om3zJiVZsqNHLf6eznNR-54" style="edgeStyle=orthogonalEdgeStyle;rounded=0;orthogonalLoop=1;jettySize=auto;html=1;entryX=0.5;entryY=0;entryDx=0;entryDy=0;" edge="1" parent="1" source="Om3zJiVZsqNHLf6eznNR-1" target="Om3zJiVZsqNHLf6eznNR-29">
          <mxGeometry relative="1" as="geometry" />
        </mxCell>
        <mxCell id="Om3zJiVZsqNHLf6eznNR-55" style="edgeStyle=orthogonalEdgeStyle;rounded=0;orthogonalLoop=1;jettySize=auto;html=1;entryX=0.5;entryY=0;entryDx=0;entryDy=0;" edge="1" parent="1" source="Om3zJiVZsqNHLf6eznNR-1" target="Om3zJiVZsqNHLf6eznNR-30">
          <mxGeometry relative="1" as="geometry" />
        </mxCell>
        <mxCell id="Om3zJiVZsqNHLf6eznNR-56" style="edgeStyle=orthogonalEdgeStyle;rounded=0;orthogonalLoop=1;jettySize=auto;html=1;entryX=0.5;entryY=0;entryDx=0;entryDy=0;" edge="1" parent="1" source="Om3zJiVZsqNHLf6eznNR-1" target="Om3zJiVZsqNHLf6eznNR-31">
          <mxGeometry relative="1" as="geometry" />
        </mxCell>
        <mxCell id="Om3zJiVZsqNHLf6eznNR-57" style="edgeStyle=orthogonalEdgeStyle;rounded=0;orthogonalLoop=1;jettySize=auto;html=1;entryX=0.405;entryY=-0.065;entryDx=0;entryDy=0;entryPerimeter=0;" edge="1" parent="1" source="Om3zJiVZsqNHLf6eznNR-1" target="Om3zJiVZsqNHLf6eznNR-32">
          <mxGeometry relative="1" as="geometry" />
        </mxCell>
        <mxCell id="Om3zJiVZsqNHLf6eznNR-58" style="edgeStyle=orthogonalEdgeStyle;rounded=0;orthogonalLoop=1;jettySize=auto;html=1;entryX=0.5;entryY=0;entryDx=0;entryDy=0;" edge="1" parent="1" source="Om3zJiVZsqNHLf6eznNR-1" target="Om3zJiVZsqNHLf6eznNR-37">
          <mxGeometry relative="1" as="geometry" />
        </mxCell>
        <mxCell id="Om3zJiVZsqNHLf6eznNR-59" style="edgeStyle=orthogonalEdgeStyle;rounded=0;orthogonalLoop=1;jettySize=auto;html=1;entryX=0.5;entryY=0;entryDx=0;entryDy=0;" edge="1" parent="1" source="Om3zJiVZsqNHLf6eznNR-1" target="Om3zJiVZsqNHLf6eznNR-36">
          <mxGeometry relative="1" as="geometry" />
        </mxCell>
        <mxCell id="Om3zJiVZsqNHLf6eznNR-61" style="edgeStyle=orthogonalEdgeStyle;rounded=0;orthogonalLoop=1;jettySize=auto;html=1;entryX=0.5;entryY=0;entryDx=0;entryDy=0;" edge="1" parent="1" source="Om3zJiVZsqNHLf6eznNR-1" target="Om3zJiVZsqNHLf6eznNR-35">
          <mxGeometry relative="1" as="geometry" />
        </mxCell>
        <mxCell id="Om3zJiVZsqNHLf6eznNR-62" style="edgeStyle=orthogonalEdgeStyle;rounded=0;orthogonalLoop=1;jettySize=auto;html=1;entryX=0.5;entryY=0;entryDx=0;entryDy=0;" edge="1" parent="1" source="Om3zJiVZsqNHLf6eznNR-1" target="Om3zJiVZsqNHLf6eznNR-34">
          <mxGeometry relative="1" as="geometry" />
        </mxCell>
        <mxCell id="Om3zJiVZsqNHLf6eznNR-63" style="edgeStyle=orthogonalEdgeStyle;rounded=0;orthogonalLoop=1;jettySize=auto;html=1;entryX=0.66;entryY=-0.025;entryDx=0;entryDy=0;entryPerimeter=0;" edge="1" parent="1" source="Om3zJiVZsqNHLf6eznNR-1" target="Om3zJiVZsqNHLf6eznNR-33">
          <mxGeometry relative="1" as="geometry" />
        </mxCell>
        <mxCell id="Om3zJiVZsqNHLf6eznNR-1" value="论坛系统" style="rounded=1;whiteSpace=wrap;html=1;" vertex="1" parent="1">
          <mxGeometry x="460" width="120" height="60" as="geometry" />
        </mxCell>
        <mxCell id="Om3zJiVZsqNHLf6eznNR-64" style="edgeStyle=orthogonalEdgeStyle;rounded=0;orthogonalLoop=1;jettySize=auto;html=1;entryX=0;entryY=0.5;entryDx=0;entryDy=0;" edge="1" parent="1" source="Om3zJiVZsqNHLf6eznNR-2" target="Om3zJiVZsqNHLf6eznNR-38">
          <mxGeometry relative="1" as="geometry" />
        </mxCell>
        <mxCell id="Om3zJiVZsqNHLf6eznNR-2" value="登录模块" style="rounded=1;whiteSpace=wrap;html=1;" vertex="1" parent="1">
          <mxGeometry y="100" width="80" height="40" as="geometry" />
        </mxCell>
        <mxCell id="Om3zJiVZsqNHLf6eznNR-65" style="edgeStyle=orthogonalEdgeStyle;rounded=0;orthogonalLoop=1;jettySize=auto;html=1;entryX=0;entryY=0.5;entryDx=0;entryDy=0;" edge="1" parent="1" source="Om3zJiVZsqNHLf6eznNR-27" target="Om3zJiVZsqNHLf6eznNR-39">
          <mxGeometry relative="1" as="geometry" />
        </mxCell>
        <mxCell id="Om3zJiVZsqNHLf6eznNR-27" value="&lt;span style=&quot;&quot;&gt;权限模块&lt;/span&gt;" style="rounded=1;whiteSpace=wrap;html=1;" vertex="1" parent="1">
          <mxGeometry x="90" y="100" width="80" height="40" as="geometry" />
        </mxCell>
        <mxCell id="Om3zJiVZsqNHLf6eznNR-66" style="edgeStyle=orthogonalEdgeStyle;rounded=0;orthogonalLoop=1;jettySize=auto;html=1;entryX=0;entryY=0.5;entryDx=0;entryDy=0;" edge="1" parent="1" source="Om3zJiVZsqNHLf6eznNR-28" target="Om3zJiVZsqNHLf6eznNR-40">
          <mxGeometry relative="1" as="geometry" />
        </mxCell>
        <mxCell id="Om3zJiVZsqNHLf6eznNR-28" value="&lt;span style=&quot;&quot;&gt;成员管理模块&lt;/span&gt;" style="rounded=1;whiteSpace=wrap;html=1;" vertex="1" parent="1">
          <mxGeometry x="180" y="100" width="80" height="40" as="geometry" />
        </mxCell>
        <mxCell id="Om3zJiVZsqNHLf6eznNR-67" style="edgeStyle=orthogonalEdgeStyle;rounded=0;orthogonalLoop=1;jettySize=auto;html=1;entryX=0;entryY=0.5;entryDx=0;entryDy=0;" edge="1" parent="1" source="Om3zJiVZsqNHLf6eznNR-29" target="Om3zJiVZsqNHLf6eznNR-41">
          <mxGeometry relative="1" as="geometry" />
        </mxCell>
        <mxCell id="Om3zJiVZsqNHLf6eznNR-29" value="&lt;span style=&quot;&quot;&gt;书籍管理模块&lt;/span&gt;" style="rounded=1;whiteSpace=wrap;html=1;" vertex="1" parent="1">
          <mxGeometry x="270" y="100" width="80" height="40" as="geometry" />
        </mxCell>
        <mxCell id="Om3zJiVZsqNHLf6eznNR-68" style="edgeStyle=orthogonalEdgeStyle;rounded=0;orthogonalLoop=1;jettySize=auto;html=1;entryX=0;entryY=0.5;entryDx=0;entryDy=0;" edge="1" parent="1" source="Om3zJiVZsqNHLf6eznNR-30" target="Om3zJiVZsqNHLf6eznNR-42">
          <mxGeometry relative="1" as="geometry" />
        </mxCell>
        <mxCell id="Om3zJiVZsqNHLf6eznNR-30" value="&lt;span style=&quot;&quot;&gt;钥匙管理模块&lt;/span&gt;" style="rounded=1;whiteSpace=wrap;html=1;" vertex="1" parent="1">
          <mxGeometry x="360" y="100" width="80" height="40" as="geometry" />
        </mxCell>
        <mxCell id="Om3zJiVZsqNHLf6eznNR-69" style="edgeStyle=orthogonalEdgeStyle;rounded=0;orthogonalLoop=1;jettySize=auto;html=1;entryX=0;entryY=0.5;entryDx=0;entryDy=0;" edge="1" parent="1" source="Om3zJiVZsqNHLf6eznNR-31" target="Om3zJiVZsqNHLf6eznNR-43">
          <mxGeometry relative="1" as="geometry" />
        </mxCell>
        <mxCell id="Om3zJiVZsqNHLf6eznNR-31" value="&lt;span style=&quot;&quot;&gt;博客管理模块&lt;/span&gt;" style="rounded=1;whiteSpace=wrap;html=1;" vertex="1" parent="1">
          <mxGeometry x="450" y="100" width="80" height="40" as="geometry" />
        </mxCell>
        <mxCell id="Om3zJiVZsqNHLf6eznNR-70" style="edgeStyle=orthogonalEdgeStyle;rounded=0;orthogonalLoop=1;jettySize=auto;html=1;entryX=0;entryY=0.5;entryDx=0;entryDy=0;" edge="1" parent="1" source="Om3zJiVZsqNHLf6eznNR-32" target="Om3zJiVZsqNHLf6eznNR-44">
          <mxGeometry relative="1" as="geometry" />
        </mxCell>
        <mxCell id="Om3zJiVZsqNHLf6eznNR-32" value="&lt;span style=&quot;&quot;&gt;报名管理模块&lt;/span&gt;" style="rounded=1;whiteSpace=wrap;html=1;" vertex="1" parent="1">
          <mxGeometry x="540" y="100" width="80" height="40" as="geometry" />
        </mxCell>
        <mxCell id="Om3zJiVZsqNHLf6eznNR-75" style="edgeStyle=orthogonalEdgeStyle;rounded=0;orthogonalLoop=1;jettySize=auto;html=1;entryX=0;entryY=0.5;entryDx=0;entryDy=0;" edge="1" parent="1" source="Om3zJiVZsqNHLf6eznNR-33" target="Om3zJiVZsqNHLf6eznNR-49">
          <mxGeometry relative="1" as="geometry" />
        </mxCell>
        <mxCell id="Om3zJiVZsqNHLf6eznNR-33" value="&lt;span style=&quot;&quot;&gt;系统监控模块&lt;/span&gt;" style="rounded=1;whiteSpace=wrap;html=1;" vertex="1" parent="1">
          <mxGeometry x="990" y="100" width="80" height="40" as="geometry" />
        </mxCell>
        <mxCell id="Om3zJiVZsqNHLf6eznNR-74" style="edgeStyle=orthogonalEdgeStyle;rounded=0;orthogonalLoop=1;jettySize=auto;html=1;entryX=0;entryY=0.5;entryDx=0;entryDy=0;" edge="1" parent="1" source="Om3zJiVZsqNHLf6eznNR-34" target="Om3zJiVZsqNHLf6eznNR-48">
          <mxGeometry relative="1" as="geometry" />
        </mxCell>
        <mxCell id="Om3zJiVZsqNHLf6eznNR-34" value="&lt;span style=&quot;&quot;&gt;操作记录模块&lt;/span&gt;" style="rounded=1;whiteSpace=wrap;html=1;" vertex="1" parent="1">
          <mxGeometry x="900" y="100" width="80" height="40" as="geometry" />
        </mxCell>
        <mxCell id="Om3zJiVZsqNHLf6eznNR-73" style="edgeStyle=orthogonalEdgeStyle;rounded=0;orthogonalLoop=1;jettySize=auto;html=1;entryX=0;entryY=0.5;entryDx=0;entryDy=0;" edge="1" parent="1" source="Om3zJiVZsqNHLf6eznNR-35" target="Om3zJiVZsqNHLf6eznNR-47">
          <mxGeometry relative="1" as="geometry" />
        </mxCell>
        <mxCell id="Om3zJiVZsqNHLf6eznNR-35" value="&lt;span style=&quot;&quot;&gt;分类管理模块&lt;/span&gt;" style="rounded=1;whiteSpace=wrap;html=1;" vertex="1" parent="1">
          <mxGeometry x="810" y="100" width="80" height="40" as="geometry" />
        </mxCell>
        <mxCell id="Om3zJiVZsqNHLf6eznNR-72" style="edgeStyle=orthogonalEdgeStyle;rounded=0;orthogonalLoop=1;jettySize=auto;html=1;entryX=0;entryY=0.5;entryDx=0;entryDy=0;" edge="1" parent="1" source="Om3zJiVZsqNHLf6eznNR-36" target="Om3zJiVZsqNHLf6eznNR-46">
          <mxGeometry relative="1" as="geometry" />
        </mxCell>
        <mxCell id="Om3zJiVZsqNHLf6eznNR-36" value="&lt;span style=&quot;&quot;&gt;标签管理模块&lt;/span&gt;" style="rounded=1;whiteSpace=wrap;html=1;" vertex="1" parent="1">
          <mxGeometry x="720" y="100" width="80" height="40" as="geometry" />
        </mxCell>
        <mxCell id="Om3zJiVZsqNHLf6eznNR-71" style="edgeStyle=orthogonalEdgeStyle;rounded=0;orthogonalLoop=1;jettySize=auto;html=1;entryX=0;entryY=0.5;entryDx=0;entryDy=0;" edge="1" parent="1" source="Om3zJiVZsqNHLf6eznNR-37" target="Om3zJiVZsqNHLf6eznNR-45">
          <mxGeometry relative="1" as="geometry" />
        </mxCell>
        <mxCell id="Om3zJiVZsqNHLf6eznNR-37" value="&lt;span style=&quot;&quot;&gt;接口管理模块&lt;/span&gt;" style="rounded=1;whiteSpace=wrap;html=1;" vertex="1" parent="1">
          <mxGeometry x="630" y="100" width="80" height="40" as="geometry" />
        </mxCell>
        <mxCell id="Om3zJiVZsqNHLf6eznNR-38" value="" style="rounded=1;whiteSpace=wrap;html=1;rotation=90;verticalAlign=middle;" vertex="1" parent="1">
          <mxGeometry x="-70" y="270" width="220" height="60" as="geometry" />
        </mxCell>
        <mxCell id="Om3zJiVZsqNHLf6eznNR-39" value="" style="rounded=1;whiteSpace=wrap;html=1;rotation=90;" vertex="1" parent="1">
          <mxGeometry x="20" y="270" width="220" height="60" as="geometry" />
        </mxCell>
        <mxCell id="Om3zJiVZsqNHLf6eznNR-40" value="" style="rounded=1;whiteSpace=wrap;html=1;rotation=90;" vertex="1" parent="1">
          <mxGeometry x="110" y="270" width="220" height="60" as="geometry" />
        </mxCell>
        <mxCell id="Om3zJiVZsqNHLf6eznNR-41" value="" style="rounded=1;whiteSpace=wrap;html=1;rotation=90;" vertex="1" parent="1">
          <mxGeometry x="200" y="270" width="220" height="60" as="geometry" />
        </mxCell>
        <mxCell id="Om3zJiVZsqNHLf6eznNR-42" value="" style="rounded=1;whiteSpace=wrap;html=1;rotation=90;" vertex="1" parent="1">
          <mxGeometry x="290" y="270" width="220" height="60" as="geometry" />
        </mxCell>
        <mxCell id="Om3zJiVZsqNHLf6eznNR-43" value="" style="rounded=1;whiteSpace=wrap;html=1;rotation=90;" vertex="1" parent="1">
          <mxGeometry x="380" y="270" width="220" height="60" as="geometry" />
        </mxCell>
        <mxCell id="Om3zJiVZsqNHLf6eznNR-44" value="" style="rounded=1;whiteSpace=wrap;html=1;rotation=90;" vertex="1" parent="1">
          <mxGeometry x="470" y="270" width="220" height="60" as="geometry" />
        </mxCell>
        <mxCell id="Om3zJiVZsqNHLf6eznNR-45" value="" style="rounded=1;whiteSpace=wrap;html=1;rotation=90;" vertex="1" parent="1">
          <mxGeometry x="560" y="270" width="220" height="60" as="geometry" />
        </mxCell>
        <mxCell id="Om3zJiVZsqNHLf6eznNR-46" value="" style="rounded=1;whiteSpace=wrap;html=1;rotation=90;" vertex="1" parent="1">
          <mxGeometry x="650" y="270" width="220" height="60" as="geometry" />
        </mxCell>
        <mxCell id="Om3zJiVZsqNHLf6eznNR-47" value="" style="rounded=1;whiteSpace=wrap;html=1;rotation=90;" vertex="1" parent="1">
          <mxGeometry x="740" y="270" width="220" height="60" as="geometry" />
        </mxCell>
        <mxCell id="Om3zJiVZsqNHLf6eznNR-48" value="" style="rounded=1;whiteSpace=wrap;html=1;rotation=90;" vertex="1" parent="1">
          <mxGeometry x="830" y="270" width="220" height="60" as="geometry" />
        </mxCell>
        <mxCell id="Om3zJiVZsqNHLf6eznNR-49" value="" style="rounded=1;whiteSpace=wrap;html=1;rotation=90;" vertex="1" parent="1">
          <mxGeometry x="920" y="270" width="220" height="60" as="geometry" />
        </mxCell>
        <mxCell id="Om3zJiVZsqNHLf6eznNR-76" value="用户登录" style="text;html=1;strokeColor=none;fillColor=none;align=center;verticalAlign=middle;whiteSpace=wrap;rounded=0;" vertex="1" parent="1">
          <mxGeometry x="10" y="201.5" width="60" height="30" as="geometry" />
        </mxCell>
        <mxCell id="Om3zJiVZsqNHLf6eznNR-77" value="滑动验证" style="text;html=1;strokeColor=none;fillColor=none;align=center;verticalAlign=middle;whiteSpace=wrap;rounded=0;" vertex="1" parent="1">
          <mxGeometry x="10" y="241.5" width="60" height="30" as="geometry" />
        </mxCell>
        <mxCell id="Om3zJiVZsqNHLf6eznNR-78" value="令牌存储" style="text;html=1;strokeColor=none;fillColor=none;align=center;verticalAlign=middle;whiteSpace=wrap;rounded=0;" vertex="1" parent="1">
          <mxGeometry x="10" y="286.5" width="60" height="30" as="geometry" />
        </mxCell>
        <mxCell id="Om3zJiVZsqNHLf6eznNR-82" value="权限划分" style="text;html=1;strokeColor=none;fillColor=none;align=center;verticalAlign=middle;whiteSpace=wrap;rounded=0;" vertex="1" parent="1">
          <mxGeometry x="100" y="203" width="60" height="30" as="geometry" />
        </mxCell>
        <mxCell id="Om3zJiVZsqNHLf6eznNR-83" value="请求过滤" style="text;html=1;strokeColor=none;fillColor=none;align=center;verticalAlign=middle;whiteSpace=wrap;rounded=0;" vertex="1" parent="1">
          <mxGeometry x="100" y="243" width="60" height="30" as="geometry" />
        </mxCell>
        <mxCell id="Om3zJiVZsqNHLf6eznNR-92" value="信息查看" style="text;html=1;strokeColor=none;fillColor=none;align=center;verticalAlign=middle;whiteSpace=wrap;rounded=0;" vertex="1" parent="1">
          <mxGeometry x="190" y="203" width="60" height="30" as="geometry" />
        </mxCell>
        <mxCell id="Om3zJiVZsqNHLf6eznNR-93" value="头像上传" style="text;html=1;strokeColor=none;fillColor=none;align=center;verticalAlign=middle;whiteSpace=wrap;rounded=0;" vertex="1" parent="1">
          <mxGeometry x="190" y="243" width="60" height="30" as="geometry" />
        </mxCell>
        <mxCell id="Om3zJiVZsqNHLf6eznNR-94" value="权限分配" style="text;html=1;strokeColor=none;fillColor=none;align=center;verticalAlign=middle;whiteSpace=wrap;rounded=0;" vertex="1" parent="1">
          <mxGeometry x="190" y="288" width="60" height="30" as="geometry" />
        </mxCell>
        <mxCell id="Om3zJiVZsqNHLf6eznNR-95" value="修改信息" style="text;html=1;strokeColor=none;fillColor=none;align=center;verticalAlign=middle;whiteSpace=wrap;rounded=0;" vertex="1" parent="1">
          <mxGeometry x="190" y="323" width="60" height="37" as="geometry" />
        </mxCell>
        <mxCell id="Om3zJiVZsqNHLf6eznNR-97" value="信息查看" style="text;html=1;strokeColor=none;fillColor=none;align=center;verticalAlign=middle;whiteSpace=wrap;rounded=0;" vertex="1" parent="1">
          <mxGeometry x="280" y="204.5" width="60" height="30" as="geometry" />
        </mxCell>
        <mxCell id="Om3zJiVZsqNHLf6eznNR-98" value="修改信息" style="text;html=1;strokeColor=none;fillColor=none;align=center;verticalAlign=middle;whiteSpace=wrap;rounded=0;" vertex="1" parent="1">
          <mxGeometry x="280" y="244.5" width="60" height="30" as="geometry" />
        </mxCell>
        <mxCell id="Om3zJiVZsqNHLf6eznNR-99" value="书籍添加" style="text;html=1;strokeColor=none;fillColor=none;align=center;verticalAlign=middle;whiteSpace=wrap;rounded=0;" vertex="1" parent="1">
          <mxGeometry x="280" y="289.5" width="60" height="30" as="geometry" />
        </mxCell>
        <mxCell id="Om3zJiVZsqNHLf6eznNR-100" value="借书还书" style="text;html=1;strokeColor=none;fillColor=none;align=center;verticalAlign=middle;whiteSpace=wrap;rounded=0;" vertex="1" parent="1">
          <mxGeometry x="280" y="324.5" width="60" height="37" as="geometry" />
        </mxCell>
        <mxCell id="Om3zJiVZsqNHLf6eznNR-101" value="借阅记录" style="text;html=1;strokeColor=none;fillColor=none;align=center;verticalAlign=middle;whiteSpace=wrap;rounded=0;" vertex="1" parent="1">
          <mxGeometry x="280" y="364.5" width="60" height="35.5" as="geometry" />
        </mxCell>
        <mxCell id="Om3zJiVZsqNHLf6eznNR-104" value="钥匙添加" style="text;html=1;strokeColor=none;fillColor=none;align=center;verticalAlign=middle;whiteSpace=wrap;rounded=0;" vertex="1" parent="1">
          <mxGeometry x="370" y="291" width="60" height="30" as="geometry" />
        </mxCell>
        <mxCell id="Om3zJiVZsqNHLf6eznNR-105" value="保管钥匙" style="text;html=1;strokeColor=none;fillColor=none;align=center;verticalAlign=middle;whiteSpace=wrap;rounded=0;" vertex="1" parent="1">
          <mxGeometry x="370" y="326" width="60" height="37" as="geometry" />
        </mxCell>
        <mxCell id="Om3zJiVZsqNHLf6eznNR-106" value="保管记录" style="text;html=1;strokeColor=none;fillColor=none;align=center;verticalAlign=middle;whiteSpace=wrap;rounded=0;" vertex="1" parent="1">
          <mxGeometry x="370" y="366" width="60" height="37" as="geometry" />
        </mxCell>
        <mxCell id="Om3zJiVZsqNHLf6eznNR-109" value="上传博客" style="text;html=1;strokeColor=none;fillColor=none;align=center;verticalAlign=middle;whiteSpace=wrap;rounded=0;" vertex="1" parent="1">
          <mxGeometry x="460" y="291" width="60" height="30" as="geometry" />
        </mxCell>
        <mxCell id="Om3zJiVZsqNHLf6eznNR-110" value="博客等级" style="text;html=1;strokeColor=none;fillColor=none;align=center;verticalAlign=middle;whiteSpace=wrap;rounded=0;" vertex="1" parent="1">
          <mxGeometry x="460" y="326" width="60" height="37" as="geometry" />
        </mxCell>
        <mxCell id="Om3zJiVZsqNHLf6eznNR-111" value="静态页面部署" style="text;html=1;strokeColor=none;fillColor=none;align=center;verticalAlign=middle;whiteSpace=wrap;rounded=0;" vertex="1" parent="1">
          <mxGeometry x="460" y="366" width="60" height="37" as="geometry" />
        </mxCell>
        <mxCell id="Om3zJiVZsqNHLf6eznNR-114" value="主页报名" style="text;html=1;strokeColor=none;fillColor=none;align=center;verticalAlign=middle;whiteSpace=wrap;rounded=0;" vertex="1" parent="1">
          <mxGeometry x="550" y="291" width="60" height="30" as="geometry" />
        </mxCell>
        <mxCell id="Om3zJiVZsqNHLf6eznNR-132" value="操作记录查看" style="text;html=1;strokeColor=none;fillColor=none;align=center;verticalAlign=middle;whiteSpace=wrap;rounded=0;" vertex="1" parent="1">
          <mxGeometry x="910" y="203" width="60" height="30" as="geometry" />
        </mxCell>
        <mxCell id="Om3zJiVZsqNHLf6eznNR-137" value="图表渲染" style="text;html=1;strokeColor=none;fillColor=none;align=center;verticalAlign=middle;whiteSpace=wrap;rounded=0;" vertex="1" parent="1">
          <mxGeometry x="1000" y="201.5" width="60" height="30" as="geometry" />
        </mxCell>
        <mxCell id="Om3zJiVZsqNHLf6eznNR-138" value="性能查看" style="text;html=1;strokeColor=none;fillColor=none;align=center;verticalAlign=middle;whiteSpace=wrap;rounded=0;" vertex="1" parent="1">
          <mxGeometry x="1000" y="241.5" width="60" height="30" as="geometry" />
        </mxCell>
        <mxCell id="Om3zJiVZsqNHLf6eznNR-144" value="信息查看" style="text;html=1;strokeColor=none;fillColor=none;align=center;verticalAlign=middle;whiteSpace=wrap;rounded=0;" vertex="1" parent="1">
          <mxGeometry x="370" y="204.5" width="60" height="30" as="geometry" />
        </mxCell>
        <mxCell id="Om3zJiVZsqNHLf6eznNR-145" value="修改信息" style="text;html=1;strokeColor=none;fillColor=none;align=center;verticalAlign=middle;whiteSpace=wrap;rounded=0;" vertex="1" parent="1">
          <mxGeometry x="370" y="244.5" width="60" height="30" as="geometry" />
        </mxCell>
        <mxCell id="Om3zJiVZsqNHLf6eznNR-146" value="信息查看" style="text;html=1;strokeColor=none;fillColor=none;align=center;verticalAlign=middle;whiteSpace=wrap;rounded=0;" vertex="1" parent="1">
          <mxGeometry x="460" y="204.5" width="60" height="30" as="geometry" />
        </mxCell>
        <mxCell id="Om3zJiVZsqNHLf6eznNR-147" value="修改信息" style="text;html=1;strokeColor=none;fillColor=none;align=center;verticalAlign=middle;whiteSpace=wrap;rounded=0;" vertex="1" parent="1">
          <mxGeometry x="460" y="244.5" width="60" height="30" as="geometry" />
        </mxCell>
        <mxCell id="Om3zJiVZsqNHLf6eznNR-148" value="信息查看" style="text;html=1;strokeColor=none;fillColor=none;align=center;verticalAlign=middle;whiteSpace=wrap;rounded=0;" vertex="1" parent="1">
          <mxGeometry x="550" y="204.5" width="60" height="30" as="geometry" />
        </mxCell>
        <mxCell id="Om3zJiVZsqNHLf6eznNR-149" value="修改信息" style="text;html=1;strokeColor=none;fillColor=none;align=center;verticalAlign=middle;whiteSpace=wrap;rounded=0;" vertex="1" parent="1">
          <mxGeometry x="550" y="244.5" width="60" height="30" as="geometry" />
        </mxCell>
        <mxCell id="Om3zJiVZsqNHLf6eznNR-150" value="信息查看" style="text;html=1;strokeColor=none;fillColor=none;align=center;verticalAlign=middle;whiteSpace=wrap;rounded=0;" vertex="1" parent="1">
          <mxGeometry x="640" y="204.5" width="60" height="30" as="geometry" />
        </mxCell>
        <mxCell id="Om3zJiVZsqNHLf6eznNR-151" value="开放/关闭接口" style="text;html=1;strokeColor=none;fillColor=none;align=center;verticalAlign=middle;whiteSpace=wrap;rounded=0;" vertex="1" parent="1">
          <mxGeometry x="640" y="244.5" width="60" height="30" as="geometry" />
        </mxCell>
        <mxCell id="Om3zJiVZsqNHLf6eznNR-152" value="信息查看" style="text;html=1;strokeColor=none;fillColor=none;align=center;verticalAlign=middle;whiteSpace=wrap;rounded=0;" vertex="1" parent="1">
          <mxGeometry x="730" y="204.5" width="60" height="30" as="geometry" />
        </mxCell>
        <mxCell id="Om3zJiVZsqNHLf6eznNR-153" value="修改信息" style="text;html=1;strokeColor=none;fillColor=none;align=center;verticalAlign=middle;whiteSpace=wrap;rounded=0;" vertex="1" parent="1">
          <mxGeometry x="730" y="244.5" width="60" height="30" as="geometry" />
        </mxCell>
        <mxCell id="Om3zJiVZsqNHLf6eznNR-154" value="信息查看" style="text;html=1;strokeColor=none;fillColor=none;align=center;verticalAlign=middle;whiteSpace=wrap;rounded=0;" vertex="1" parent="1">
          <mxGeometry x="820" y="204.5" width="60" height="30" as="geometry" />
        </mxCell>
        <mxCell id="Om3zJiVZsqNHLf6eznNR-155" value="修改信息" style="text;html=1;strokeColor=none;fillColor=none;align=center;verticalAlign=middle;whiteSpace=wrap;rounded=0;" vertex="1" parent="1">
          <mxGeometry x="820" y="244.5" width="60" height="30" as="geometry" />
        </mxCell>
        <mxCell id="Om3zJiVZsqNHLf6eznNR-156" value="名单导出" style="text;html=1;strokeColor=none;fillColor=none;align=center;verticalAlign=middle;whiteSpace=wrap;rounded=0;" vertex="1" parent="1">
          <mxGeometry x="550" y="328" width="60" height="30" as="geometry" />
        </mxCell>
      </root>
    </mxGraphModel>
  </diagram>
</mxfile>
